<?xml version="1.0" encoding="UTF-8" standalone="no"?>
<!DOCTYPE svg PUBLIC "-//W3C//DTD SVG 1.1//EN" "http://www.w3.org/Graphics/SVG/1.1/DTD/svg11.dtd">
<!-- 由 Microsoft Visio, SVG Export 生成 corev1.svg Page-1 -->
<svg xmlns="http://www.w3.org/2000/svg" xmlns:xlink="http://www.w3.org/1999/xlink" xmlns:ev="http://www.w3.org/2001/xml-events"
		xmlns:v="http://schemas.microsoft.com/visio/2003/SVGExtensions/" width="16.5354in" height="11.6929in"
		viewBox="0 0 1190.55 841.89" xml:space="preserve" color-interpolation-filters="sRGB" class="st10">
	<v:documentProperties v:langID="2052" v:metric="true" v:viewMarkup="false">
		<v:userDefs>
			<v:ud v:nameU="msvNoAutoConnect" v:val="VT0(1):26"/>
		</v:userDefs>
	</v:documentProperties>

	<style type="text/css">
	<![CDATA[
		.st1 {fill:#ffffff;stroke:#000000;stroke-linecap:round;stroke-linejoin:round;stroke-width:0.75}
		.st2 {fill:none;stroke:none;stroke-linecap:round;stroke-linejoin:round;stroke-width:0.75}
		.st3 {fill:#000000;font-family:宋体;font-size:1.00001em}
		.st4 {stroke:#000000;stroke-linecap:round;stroke-linejoin:round;stroke-width:0.75}
		.st5 {fill:#ffffff;stroke:#000000;stroke-linecap:round;stroke-linejoin:round;stroke-width:0.24}
		.st6 {fill:#000000;font-family:宋体;font-size:0.666664em;font-style:italic}
		.st7 {fill:#000000;font-family:宋体;font-size:0.666664em}
		.st8 {fill:#000000;font-family:宋体;font-size:0.75em}
		.st9 {fill:#000000;font-family:宋体;font-size:0.499992em}
		.st10 {fill:none;fill-rule:evenodd;font-size:12px;overflow:visible;stroke-linecap:square;stroke-miterlimit:3}
	]]>
	</style>

	<g v:mID="0" v:index="1" v:groupContext="foregroundPage">
		<title>页-1</title>
		<v:pageProperties v:drawingScale="0.0393701" v:pageScale="0.0393701" v:drawingUnits="24" v:shadowOffsetX="8.50394"
				v:shadowOffsetY="-8.50394"/>
		<v:layer v:name="连接线" v:index="0"/>
		<v:layer v:name="电气" v:index="1"/>
		<g id="shape2-1" v:mID="2" v:groupContext="shape" transform="translate(117.638,-402.52)">
			<title>工作表.2</title>
			<rect x="0" y="805.039" width="52.4409" height="36.8504" class="st1"/>
		</g>
		<g id="shape3-3" v:mID="3" v:groupContext="shape" transform="translate(128.976,-411.024)">
			<title>工作表.3</title>
			<desc>+</desc>
			<v:textBlock v:margins="rect(4,4,4,4)" v:tabSpace="42.5197"/>
			<v:textRect cx="12.0472" cy="834.803" width="24.1" height="14.1732"/>
			<rect x="0" y="827.717" width="24.0945" height="14.1732" class="st2"/>
			<text x="9.05" y="838.4" class="st3" v:langID="2052"><v:paragraph v:horizAlign="1"/><v:tabList/>+</text>		</g>
		<g id="shape4-6" v:mID="4" v:groupContext="shape" transform="translate(70.8661,-325.984)">
			<title>工作表.4</title>
			<rect x="0" y="775.276" width="24.0945" height="66.6142" class="st1"/>
		</g>
		<g id="shape5-8" v:mID="5" v:groupContext="shape" transform="translate(70.8661,-352.205)">
			<title>工作表.5</title>
			<desc>pc</desc>
			<v:textBlock v:margins="rect(4,4,4,4)" v:tabSpace="42.5197"/>
			<v:textRect cx="12.0472" cy="834.803" width="24.1" height="14.1732"/>
			<rect x="0" y="827.717" width="24.0945" height="14.1732" class="st2"/>
			<text x="6.05" y="838.4" class="st3" v:langID="2052"><v:paragraph v:horizAlign="1"/><v:tabList/>pc</text>		</g>
		<g id="shape6-11" v:mID="6" v:groupContext="shape" v:layerMember="0" transform="translate(94.9606,-361.417)">
			<title>动态连接线</title>
			<path d="M0 841.89 L10.63 841.89 L10.63 792.28 L22.68 792.28" class="st4"/>
		</g>
		<g id="shape9-14" v:mID="9" v:groupContext="shape" v:layerMember="1" transform="translate(70.8661,-428.406)">
			<title>输入/输出端口</title>
			<v:userDefs>
				<v:ud v:nameU="Form" v:val="VT0(0):26"/>
				<v:ud v:nameU="visVersion" v:val="VT0(15):26"/>
				<v:ud v:nameU="visDescription" v:val="VT4(单向或双向输入/输出端口。 )"/>
			</v:userDefs>
			<path d="M0 838.35 L0 834.8 L21.26 834.8 L28.35 838.35 L21.26 841.89 L0 841.89 L0 838.35 Z" class="st5"/>
		</g>
		<g id="shape10-16" v:mID="10" v:groupContext="shape" v:layerMember="0" transform="translate(99.2126,-435.66)">
			<title>动态连接线.10</title>
			<path d="M0 845.6 L10.63 845.6 L10.63 852.35 L18.43 852.35" class="st4"/>
		</g>
		<g id="shape11-19" v:mID="11" v:groupContext="shape" transform="translate(70.8661,-411.024)">
			<title>工作表.11</title>
			<desc>4</desc>
			<v:textBlock v:margins="rect(4,4,4,4)" v:tabSpace="42.5197"/>
			<v:textRect cx="7.08661" cy="834.803" width="14.18" height="14.1732"/>
			<rect x="0" y="827.717" width="14.1732" height="14.1732" class="st2"/>
			<text x="4.09" y="838.4" class="st3" v:langID="2052"><v:paragraph v:horizAlign="1"/><v:tabList/>4</text>		</g>
		<g id="shape12-22" v:mID="12" v:groupContext="shape" v:layerMember="0" transform="translate(170.079,-418.11)">
			<title>动态连接线.12</title>
			<path d="M0 841.89 L22.68 841.89 L22.68 795.12" class="st4"/>
		</g>
		<g id="shape13-25" v:mID="13" v:groupContext="shape" v:layerMember="0" transform="translate(192.756,-470.835)">
			<title>动态连接线.13</title>
			<path d="M0 847.84 L-153.64 847.84 L-153.64 850.11" class="st4"/>
		</g>
		<g id="shape14-28" v:mID="14" v:groupContext="shape" v:layerMember="0" transform="translate(39.1181,-462.614)">
			<title>动态连接线.14</title>
			<path d="M0 841.89 L0 943.09 L31.75 943.09" class="st4"/>
		</g>
		<g id="shape15-31" v:mID="15" v:groupContext="shape" transform="translate(151.654,-340.157)">
			<title>工作表.15</title>
			<desc>ITCM</desc>
			<v:textBlock v:margins="rect(4,4,4,4)" v:tabSpace="42.5197"/>
			<v:textRect cx="26.5039" cy="822.756" width="53.01" height="38.2677"/>
			<rect x="0" y="803.622" width="53.0079" height="38.2677" class="st1"/>
			<text x="14.5" y="826.36" class="st3" v:langID="2052"><v:paragraph v:horizAlign="1"/><v:tabList/>ITCM</text>		</g>
		<g id="shape18-34" v:mID="18" v:groupContext="shape" v:layerMember="0" transform="translate(105.591,-354.331)">
			<title>动态连接线.18</title>
			<path d="M0 834.8 L46.06 834.8" class="st4"/>
		</g>
		<g id="shape19-37" v:mID="19" v:groupContext="shape" transform="translate(226.772,-223.937)">
			<title>工作表.19</title>
			<rect x="0" y="609.449" width="24.0945" height="232.441" class="st1"/>
		</g>
		<g id="shape25-39" v:mID="25" v:groupContext="shape" v:layerMember="0" transform="translate(204.661,-367.512)">
			<title>动态连接线.25</title>
			<path d="M0 847.98 L10.63 847.98 L10.63 849.97 L22.11 849.97" class="st4"/>
		</g>
		<g id="shape26-42" v:mID="26" v:groupContext="shape" transform="translate(226.772,-345.827)">
			<title>工作表.26</title>
			<desc>Inst</desc>
			<v:textBlock v:margins="rect(4,4,4,4)" v:tabSpace="42.5197"/>
			<v:textRect cx="12.0472" cy="827.717" width="24.1" height="28.3465"/>
			<rect x="0" y="813.543" width="24.0945" height="28.3465" class="st2"/>
			<text x="4.05" y="830.12" class="st6" v:langID="2052"><v:paragraph v:horizAlign="1"/><v:tabList/>Inst</text>		</g>
		<g id="shape28-45" v:mID="28" v:groupContext="shape" transform="translate(274.961,-331.004)">
			<title>工作表.28</title>
			<rect x="0" y="799.37" width="34.0157" height="42.5197" class="st1"/>
		</g>
		<g id="shape32-47" v:mID="32" v:groupContext="shape" v:layerMember="0" transform="translate(274.961,-355.423)">
			<title>动态连接线.32</title>
			<path d="M0 835.13 L-10.63 835.13 L-10.63 834.48 L-24.09 834.48" class="st4"/>
		</g>
		<g id="shape33-50" v:mID="33" v:groupContext="shape" transform="translate(272.976,-311.811)">
			<title>工作表.33</title>
			<desc>decode</desc>
			<v:textBlock v:margins="rect(4,4,4,4)" v:tabSpace="42.5197"/>
			<v:textRect cx="17.0079" cy="833.386" width="34.02" height="17.0079"/>
			<rect x="0" y="824.882" width="34.0157" height="17.0079" class="st2"/>
			<text x="5.01" y="835.79" class="st7" v:langID="2052"><v:paragraph v:horizAlign="1"/><v:tabList/>decode</text>		</g>
		<g id="shape35-53" v:mID="35" v:groupContext="shape" transform="translate(340.157,-295.97)">
			<title>工作表.35</title>
			<rect x="0" y="762.52" width="53.2913" height="79.3701" class="st1"/>
		</g>
		<g id="shape37-55" v:mID="37" v:groupContext="shape" v:layerMember="0" transform="translate(308.976,-349.754)">
			<title>动态连接线.37</title>
			<path d="M0 835.13 L21.83 834.48" class="st4"/>
		</g>
		<g id="shape38-58" v:mID="38" v:groupContext="shape" v:layerMember="0" transform="translate(342.567,-364.836)">
			<title>动态连接线.38</title>
			<path d="M-2.41 848.39 L-11.76 848.39 L-11.76 849.56" class="st4"/>
		</g>
		<g id="shape39-61" v:mID="39" v:groupContext="shape" transform="translate(340.157,-351.378)">
			<title>工作表.39</title>
			<desc>rs2</desc>
			<v:textBlock v:margins="rect(4,4,4,4)" v:tabSpace="42.5197"/>
			<v:textRect cx="11.9055" cy="834.803" width="23.82" height="14.1732"/>
			<rect x="0" y="827.717" width="23.811" height="14.1732" class="st2"/>
			<text x="5.16" y="837.5" class="st8" v:langID="2052"><v:paragraph v:horizAlign="1"/><v:tabList/>rs2</text>		</g>
		<g id="shape40-64" v:mID="40" v:groupContext="shape" transform="translate(417.26,-212.598)">
			<title>工作表.40</title>
			<rect x="0" y="595.276" width="24.0945" height="246.614" class="st1"/>
		</g>
		<g id="shape41-66" v:mID="41" v:groupContext="shape" v:layerMember="0" transform="translate(393.449,-352.363)">
			<title>动态连接线.41</title>
			<path d="M0 836.77 L10.63 836.77 L10.63 832.84 L23.81 832.84" class="st4"/>
		</g>
		<g id="shape42-69" v:mID="42" v:groupContext="shape" transform="translate(369.354,-351.673)">
			<title>工作表.42</title>
			<desc>rs2</desc>
			<v:textBlock v:margins="rect(4,4,4,4)" v:tabSpace="42.5197"/>
			<v:textRect cx="12.0472" cy="834.803" width="24.1" height="14.1732"/>
			<rect x="0" y="827.717" width="24.0945" height="14.1732" class="st2"/>
			<text x="5.3" y="837.5" class="st8" v:langID="2052"><v:paragraph v:horizAlign="1"/><v:tabList/>rs2</text>		</g>
		<g id="shape44-72" v:mID="44" v:groupContext="shape" transform="translate(417.26,-354.331)">
			<title>工作表.44</title>
			<desc>rs2</desc>
			<v:textBlock v:margins="rect(4,4,4,4)" v:tabSpace="42.5197"/>
			<v:textRect cx="12.0472" cy="834.803" width="24.1" height="14.1732"/>
			<rect x="0" y="827.717" width="24.0945" height="14.1732" class="st2"/>
			<text x="5.3" y="837.5" class="st8" v:langID="2052"><v:paragraph v:horizAlign="1"/><v:tabList/>rs2</text>		</g>
		<g id="shape46-75" v:mID="46" v:groupContext="shape" transform="translate(340.157,-393.307)">
			<title>工作表.46</title>
			<desc>Imm</desc>
			<v:textBlock v:margins="rect(4,4,4,4)" v:tabSpace="42.5197"/>
			<v:textRect cx="21.2598" cy="831.26" width="42.52" height="21.2598"/>
			<rect x="0" y="820.63" width="42.5197" height="21.2598" class="st1"/>
			<text x="12.26" y="834.86" class="st3" v:langID="2052"><v:paragraph v:horizAlign="1"/><v:tabList/>Imm</text>		</g>
		<g id="shape52-78" v:mID="52" v:groupContext="shape" v:layerMember="0" transform="translate(318.898,-368.504)">
			<title>动态连接线.52</title>
			<path d="M0 841.89 L0 803.34 L17.01 803.34" class="st4"/>
		</g>
		<g id="shape53-81" v:mID="53" v:groupContext="shape" v:layerMember="0" transform="translate(340.157,-399.969)">
			<title>动态连接线.53</title>
			<path d="M-0 834.8 L-14.17 834.8" class="st4"/>
		</g>
		<g id="shape55-84" v:mID="55" v:groupContext="shape" v:layerMember="0" transform="translate(321.024,-400.252)">
			<title>动态连接线.55</title>
			<path d="M-2.13 841.89 L-2.13 873.64 L-12.05 873.64" class="st4"/>
		</g>
		<g id="shape56-87" v:mID="56" v:groupContext="shape" v:layerMember="0" transform="translate(382.677,-399.685)">
			<title>动态连接线.56</title>
			<path d="M0 834.8 L21.26 834.8" class="st4"/>
		</g>
		<g id="shape57-90" v:mID="57" v:groupContext="shape" v:layerMember="0" transform="translate(417.685,-414.283)">
			<title>动态连接线.57</title>
			<path d="M-0.43 848.55 L-13.75 848.55 L-13.75 849.4" class="st4"/>
		</g>
		<g id="shape58-93" v:mID="58" v:groupContext="shape" transform="translate(417.26,-400.819)">
			<title>工作表.58</title>
			<desc>Imm</desc>
			<v:textBlock v:margins="rect(4,4,4,4)" v:tabSpace="42.5197"/>
			<v:textRect cx="12.0472" cy="834.803" width="24.1" height="14.1732"/>
			<rect x="0" y="827.717" width="24.0945" height="14.1732" class="st2"/>
			<text x="5.3" y="837.5" class="st8" v:langID="2052"><v:paragraph v:horizAlign="1"/><v:tabList/>Imm</text>		</g>
		<g id="shape59-96" v:mID="59" v:groupContext="shape" transform="translate(528.661,-350.079)">
			<title>工作表.59</title>
			<rect x="0" y="799.37" width="52.4409" height="42.5197" class="st1"/>
		</g>
		<g id="shape60-98" v:mID="60" v:groupContext="shape" v:layerMember="0" transform="translate(417.26,-439.37)">
			<title>动态连接线.60</title>
			<path d="M0 841.89 L-98.36 841.89 L-98.36 874.2" class="st4"/>
		</g>
		<g id="shape61-101" v:mID="61" v:groupContext="shape" transform="translate(417.26,-429.449)">
			<title>工作表.61</title>
			<desc>op</desc>
			<v:textBlock v:margins="rect(4,4,4,4)" v:tabSpace="42.5197"/>
			<v:textRect cx="12.0472" cy="833.386" width="24.1" height="17.0079"/>
			<rect x="0" y="824.882" width="24.0945" height="17.0079" class="st2"/>
			<text x="7.55" y="836.09" class="st8" v:langID="2052"><v:paragraph v:horizAlign="1"/><v:tabList/>op</text>		</g>
		<g id="shape64-104" v:mID="64" v:groupContext="shape" v:layerMember="0" transform="translate(441.354,-439.37)">
			<title>动态连接线.64</title>
			<path d="M0 841.89 L104.31 841.89 L104.31 888.66" class="st4"/>
		</g>
		<g id="shape65-107" v:mID="65" v:groupContext="shape" transform="translate(493.228,-370.866)">
			<title>工作表.65</title>
			<rect x="0" y="826.866" width="7.08661" height="15.0236" class="st1"/>
		</g>
		<g id="shape66-109" v:mID="66" v:groupContext="shape" transform="translate(493.228,-344.409)">
			<title>工作表.66</title>
			<rect x="0" y="824.882" width="5.66929" height="17.0079" class="st1"/>
		</g>
		<g id="shape68-111" v:mID="68" v:groupContext="shape" v:layerMember="0" transform="translate(493.228,-375.591)">
			<title>动态连接线.68</title>
			<path d="M0 834.8 L-6.85 834.8 A2.3622 2.3622 -180 0 0 -11.57 834.8 L-26.93 834.8" class="st4"/>
		</g>
		<g id="shape69-114" v:mID="69" v:groupContext="shape" v:layerMember="0" transform="translate(441.354,-408.189)">
			<title>动态连接线.69</title>
			<path d="M0 841.89 L24.94 841.89 L24.94 867.4" class="st4"/>
		</g>
		<g id="shape71-117" v:mID="71" v:groupContext="shape" v:layerMember="0" transform="translate(500.315,-372.756)">
			<title>动态连接线.71</title>
			<path d="M0 837.64 L10.63 837.64 L10.63 831.97 L28.35 831.97" class="st4"/>
		</g>
		<g id="shape73-120" v:mID="73" v:groupContext="shape" transform="translate(552.189,-364.677)">
			<title>工作表.73</title>
			<desc>ALU</desc>
			<v:textBlock v:margins="rect(4,4,4,4)" v:tabSpace="42.5197"/>
			<v:textRect cx="10.7717" cy="835.228" width="21.55" height="13.3228"/>
			<rect x="0" y="828.567" width="21.5433" height="13.3228" class="st2"/>
			<text x="4.02" y="837.93" class="st8" v:langID="2052"><v:paragraph v:horizAlign="1"/><v:tabList/>ALU</text>		</g>
		<g id="shape74-123" v:mID="74" v:groupContext="shape" transform="translate(535.748,-385.512)">
			<title>工作表.74</title>
			<desc>op</desc>
			<v:textBlock v:margins="rect(4,4,4,4)" v:tabSpace="42.5197"/>
			<v:textRect cx="9.21259" cy="839.48" width="18.43" height="4.8189"/>
			<rect x="0" y="837.071" width="18.4252" height="4.8189" class="st2"/>
			<text x="4.71" y="842.18" class="st8" v:langID="2052"><v:paragraph v:horizAlign="1"/><v:tabList/>op</text>		</g>
		<g id="shape77-126" v:mID="77" v:groupContext="shape" transform="translate(530.929,-377.008)">
			<title>工作表.77</title>
			<desc>2</desc>
			<v:textBlock v:margins="rect(4,4,4,4)" v:tabSpace="42.5197"/>
			<v:textRect cx="5.24409" cy="836.646" width="10.49" height="10.4882"/>
			<rect x="0" y="831.402" width="10.4882" height="10.4882" class="st2"/>
			<text x="4" y="839.35" class="st8" v:langID="2052"><v:paragraph v:horizAlign="1"/><v:tabList/>2</text>		</g>
		<g id="shape78-129" v:mID="78" v:groupContext="shape" transform="translate(531.213,-356.315)">
			<title>工作表.78</title>
			<desc>1</desc>
			<v:textBlock v:margins="rect(4,4,4,4)" v:tabSpace="42.5197"/>
			<v:textRect cx="5.10236" cy="837.213" width="10.21" height="9.35433"/>
			<rect x="0" y="832.535" width="10.2047" height="9.35433" class="st2"/>
			<text x="4" y="839.91" class="st8" v:langID="2052"><v:paragraph v:horizAlign="1"/><v:tabList/>1</text>		</g>
		<g id="shape79-132" v:mID="79" v:groupContext="shape" transform="translate(571.465,-368.504)">
			<title>工作表.79</title>
			<desc>o</desc>
			<v:textBlock v:margins="rect(4,4,4,4)" v:tabSpace="42.5197"/>
			<v:textRect cx="4.81889" cy="838.134" width="9.64" height="7.51181"/>
			<rect x="0" y="834.378" width="9.63779" height="7.51181" class="st2"/>
			<text x="4" y="840.83" class="st8" v:langID="2052"><v:paragraph v:horizAlign="1"/><v:tabList/>o</text>		</g>
		<g id="shape81-135" v:mID="81" v:groupContext="shape" v:layerMember="0" transform="translate(498.898,-354.331)">
			<title>动态连接线.81</title>
			<path d="M0 841.89 L14.91 841.89 L14.91 827.72 L29.76 827.72" class="st4"/>
		</g>
		<g id="shape82-138" v:mID="82" v:groupContext="shape" v:layerMember="0" transform="translate(306.142,-341.575)">
			<title>动态连接线.82</title>
			<path d="M2.83 834.8 L11.34 834.8" class="st4"/>
		</g>
		<g id="shape83-141" v:mID="83" v:groupContext="shape" v:layerMember="0" transform="translate(340.157,-341.575)">
			<title>动态连接线.83</title>
			<path d="M0 834.8 L-22.68 834.8" class="st4"/>
		</g>
		<g id="shape85-144" v:mID="85" v:groupContext="shape" transform="translate(340.157,-341.858)">
			<title>工作表.85</title>
			<desc>rs1</desc>
			<v:textBlock v:margins="rect(4,4,4,4)" v:tabSpace="42.5197"/>
			<v:textRect cx="11.9055" cy="835.654" width="23.82" height="12.4724"/>
			<rect x="0" y="829.417" width="23.811" height="12.4724" class="st2"/>
			<text x="5.16" y="838.35" class="st8" v:langID="2052"><v:paragraph v:horizAlign="1"/><v:tabList/>rs1</text>		</g>
		<g id="shape86-147" v:mID="86" v:groupContext="shape" transform="translate(369.638,-341.858)">
			<title>工作表.86</title>
			<desc>rs1</desc>
			<v:textBlock v:margins="rect(4,4,4,4)" v:tabSpace="42.5197"/>
			<v:textRect cx="11.9055" cy="835.654" width="23.82" height="12.4724"/>
			<rect x="0" y="829.417" width="23.811" height="12.4724" class="st2"/>
			<text x="5.16" y="838.35" class="st8" v:langID="2052"><v:paragraph v:horizAlign="1"/><v:tabList/>rs1</text>		</g>
		<g id="shape87-150" v:mID="87" v:groupContext="shape" transform="translate(417.26,-335.906)">
			<title>工作表.87</title>
			<desc>rs1</desc>
			<v:textBlock v:margins="rect(4,4,4,4)" v:tabSpace="42.5197"/>
			<v:textRect cx="12.0472" cy="834.803" width="24.1" height="14.1732"/>
			<rect x="0" y="827.717" width="24.0945" height="14.1732" class="st2"/>
			<text x="5.3" y="837.5" class="st8" v:langID="2052"><v:paragraph v:horizAlign="1"/><v:tabList/>rs1</text>		</g>
		<g id="shape88-153" v:mID="88" v:groupContext="shape" v:layerMember="0" transform="translate(418.394,-338.74)">
			<title>动态连接线.88</title>
			<path d="M-1.13 834.8 L-13.04 834.8" class="st4"/>
		</g>
		<g id="shape89-156" v:mID="89" v:groupContext="shape" v:layerMember="0" transform="translate(392.315,-338.74)">
			<title>动态连接线.89</title>
			<path d="M1.13 834.8 L13.04 834.8" class="st4"/>
		</g>
		<g id="shape91-159" v:mID="91" v:groupContext="shape" v:layerMember="0" transform="translate(441.354,-343.701)">
			<title>动态连接线.91</title>
			<path d="M0 839.76 L10.63 839.76 L10.63 829.84 L22.58 829.84 A2.3622 2.3622 0 0 1 27.31 829.84 L31.09 829.84 A2.3622
						 2.3622 0 0 1 35.81 829.84 L51.87 829.84" class="st4"/>
		</g>
		<g id="shape93-162" v:mID="93" v:groupContext="shape" v:layerMember="0" transform="translate(441.354,-361.417)">
			<title>动态连接线.93</title>
			<path d="M0 841.89 L22.58 841.89 A2.3622 2.3622 0 1 1 27.31 841.89 L33.45 841.89 L33.45 827.72 L51.87 827.72"
					class="st4"/>
		</g>
		<g id="shape94-165" v:mID="94" v:groupContext="shape" transform="translate(417.26,-255.118)">
			<title>工作表.94</title>
			<desc>pc</desc>
			<v:textBlock v:margins="rect(4,4,4,4)" v:tabSpace="42.5197"/>
			<v:textRect cx="12.0472" cy="834.803" width="24.1" height="14.1732"/>
			<rect x="0" y="827.717" width="24.0945" height="14.1732" class="st2"/>
			<text x="7.55" y="837.5" class="st8" v:langID="2052"><v:paragraph v:horizAlign="1"/><v:tabList/>pc</text>		</g>
		<g id="shape96-168" v:mID="96" v:groupContext="shape" v:layerMember="0" transform="translate(461.622,-255.118)">
			<title>动态连接线.96</title>
			<path d="M-0.99 834.8 L-7.28 834.8 A2.3622 2.3622 -180 0 0 -12 834.8 L-13.18 834.8" class="st4"/>
		</g>
		<g id="shape97-171" v:mID="97" v:groupContext="shape" v:layerMember="0" transform="translate(437.811,-255.118)">
			<title>动态连接线.97</title>
			<path d="M3.54 834.8 L10.63 834.8" class="st4"/>
		</g>
		<g id="shape99-174" v:mID="99" v:groupContext="shape" v:layerMember="0" transform="translate(460.63,-262.205)">
			<title>动态连接线.99</title>
			<path d="M0 841.89 L-0 755.43 L3.31 755.43 A2.3622 2.3622 0 0 1 8.03 755.43 L11.81 755.43 A2.3622 2.3622 0 0 1 16.54
						 755.43 L32.6 755.43" class="st4"/>
		</g>
		<g id="shape100-177" v:mID="100" v:groupContext="shape" transform="translate(626.659,-205.512)">
			<title>工作表.100</title>
			<rect x="0" y="586.772" width="28.3465" height="255.118" class="st1"/>
		</g>
		<g id="shape101-179" v:mID="101" v:groupContext="shape" v:layerMember="0" transform="translate(581.102,-381.969)">
			<title>动态连接线.101</title>
			<path d="M0 848.27 L10.63 848.27 L10.63 849.69 L45.56 849.69" class="st4"/>
		</g>
		<g id="shape103-182" v:mID="103" v:groupContext="shape" transform="translate(870.236,-205.512)">
			<title>工作表.103</title>
			<rect x="0" y="586.772" width="28.3465" height="255.118" class="st1"/>
		</g>
		<g id="shape104-184" v:mID="104" v:groupContext="shape" v:layerMember="0" transform="translate(655.006,-381.969)">
			<title>动态连接线.104</title>
			<path d="M0 848.27 L10.63 848.27 L10.63 849.69 L215.23 849.69" class="st4"/>
		</g>
		<g id="shape105-187" v:mID="105" v:groupContext="shape" transform="translate(955.276,-323.15)">
			<title>工作表.105</title>
			<desc>data</desc>
			<v:textBlock v:margins="rect(4,4,4,4)" v:tabSpace="42.5197"/>
			<v:textRect cx="21.2598" cy="812.126" width="42.52" height="59.5276"/>
			<rect x="0" y="782.362" width="42.5197" height="59.5276" class="st1"/>
			<text x="12.26" y="814.83" class="st8" v:langID="2052"><v:paragraph v:horizAlign="1"/><v:tabList/>data</text>		</g>
		<g id="shape106-190" v:mID="106" v:groupContext="shape" v:layerMember="0" transform="translate(898.583,-361.417)">
			<title>动态连接线.106</title>
			<path d="M0 834.8 L56.69 834.8" class="st4"/>
		</g>
		<g id="shape108-193" v:mID="108" v:groupContext="shape" transform="translate(340.157,-316.913)">
			<title>工作表.108</title>
			<desc>rd</desc>
			<v:textBlock v:margins="rect(4,4,4,4)" v:tabSpace="42.5197"/>
			<v:textRect cx="10.6299" cy="833.811" width="21.26" height="16.1575"/>
			<rect x="0" y="825.732" width="21.2599" height="16.1575" class="st2"/>
			<text x="6.13" y="836.51" class="st8" v:langID="2052"><v:paragraph v:horizAlign="1"/><v:tabList/>rd</text>		</g>
		<g id="shape109-196" v:mID="109" v:groupContext="shape" transform="translate(340.157,-295.97)">
			<title>工作表.109</title>
			<desc>wdata</desc>
			<v:textBlock v:margins="rect(4,4,4,4)" v:tabSpace="42.5197"/>
			<v:textRect cx="17.0079" cy="833.969" width="34.02" height="15.8407"/>
			<rect x="0" y="826.049" width="34.0157" height="15.8407" class="st2"/>
			<text x="5.76" y="836.67" class="st8" v:langID="2052"><v:paragraph v:horizAlign="1"/><v:tabList/>wdata</text>		</g>
		<g id="shape113-199" v:mID="113" v:groupContext="shape" transform="translate(870.236,-232.441)">
			<title>工作表.113</title>
			<desc>rd</desc>
			<v:textBlock v:margins="rect(4,4,4,4)" v:tabSpace="42.5197"/>
			<v:textRect cx="14.1732" cy="833.386" width="28.35" height="17.0079"/>
			<rect x="0" y="824.882" width="28.3465" height="17.0079" class="st2"/>
			<text x="9.67" y="836.09" class="st8" v:langID="2052"><v:paragraph v:horizAlign="1"/><v:tabList/>rd</text>		</g>
		<g id="shape119-202" v:mID="119" v:groupContext="shape" v:layerMember="1" transform="translate(445.039,-418.11)">
			<title>输入/输出端口.119</title>
			<v:userDefs>
				<v:ud v:nameU="Form" v:val="VT0(0):26"/>
				<v:ud v:nameU="visVersion" v:val="VT0(15):26"/>
				<v:ud v:nameU="visDescription" v:val="VT4(单向或双向输入/输出端口。 )"/>
			</v:userDefs>
			<path d="M0 838.35 L0 834.8 L21.26 834.8 L28.35 838.35 L21.26 841.89 L0 841.89 L0 838.35 Z" class="st5"/>
		</g>
		<g id="shape120-204" v:mID="120" v:groupContext="shape" v:layerMember="0" transform="translate(473.386,-421.654)">
			<title>动态连接线.120</title>
			<path d="M0 841.89 L10.63 841.89 L10.63 885.12 L19.84 885.12" class="st4"/>
		</g>
		<g id="shape121-207" v:mID="121" v:groupContext="shape" transform="translate(447.874,-425.197)">
			<title>工作表.121</title>
			<desc>4</desc>
			<v:textBlock v:margins="rect(4,4,4,4)" v:tabSpace="42.5197"/>
			<v:textRect cx="4.25197" cy="839.055" width="8.51" height="5.66926"/>
			<rect x="0" y="836.22" width="8.50394" height="5.66926" class="st2"/>
			<text x="4" y="841.76" class="st8" v:langID="2052"><v:paragraph v:horizAlign="1"/><v:tabList/>4</text>		</g>
		<g id="shape122-210" v:mID="122" v:groupContext="shape" transform="translate(552.756,-242.362)">
			<title>工作表.122</title>
			<desc>ADD</desc>
			<v:textBlock v:margins="rect(4,4,4,4)" v:tabSpace="42.5197"/>
			<v:textRect cx="28.3465" cy="821.339" width="56.7" height="41.1024"/>
			<rect x="0" y="800.787" width="56.6929" height="41.1024" class="st1"/>
			<text x="21.6" y="824.04" class="st8" v:langID="2052"><v:paragraph v:horizAlign="1"/><v:tabList/>ADD</text>		</g>
		<g id="shape125-213" v:mID="125" v:groupContext="shape" transform="translate(525.827,-266.457)">
			<title>工作表.125</title>
			<rect x="0" y="827.717" width="7.08661" height="14.1732" class="st1"/>
		</g>
		<g id="shape127-215" v:mID="127" v:groupContext="shape" v:layerMember="0" transform="translate(532.913,-263.622)">
			<title>动态连接线.127</title>
			<path d="M0 834.8 L19.84 834.8" class="st4"/>
		</g>
		<g id="shape128-218" v:mID="128" v:groupContext="shape" v:layerMember="0" transform="translate(525.827,-277.795)">
			<title>动态连接线.128</title>
			<path d="M0 841.89 L-59.53 841.89 L-59.53 737.01" class="st4"/>
		</g>
		<g id="shape129-221" v:mID="129" v:groupContext="shape" v:layerMember="1" transform="translate(288.526,-265.748)">
			<title>输入/输出端口.129</title>
			<desc>2RF</desc>
			<v:userDefs>
				<v:ud v:nameU="Form" v:val="VT0(0):26"/>
				<v:ud v:nameU="visVersion" v:val="VT0(15):26"/>
				<v:ud v:nameU="visDescription" v:val="VT4(单向或双向输入/输出端口。 )"/>
			</v:userDefs>
			<v:textBlock v:margins="rect(1,1,1,1)" v:tabSpace="42.5197"/>
			<v:textRect cx="14.1732" cy="830.201" width="14.01" height="9.20349"/>
			<path d="M0 838.35 L0 834.8 L21.26 834.8 L28.35 838.35 L21.26 841.89 L0 841.89 L0 838.35 Z" class="st5"/>
			<text x="9.67" y="832" class="st9" v:langID="2052"><v:paragraph v:horizAlign="1"/><v:tabList/>2RF</text>		</g>
		<g id="shape133-224" v:mID="133" v:groupContext="shape" v:layerMember="0" transform="translate(316.873,-269.291)">
			<title>动态连接线.133</title>
			<path d="M0 841.89 L10.63 841.89 L10.63 785.2 L23.28 785.2" class="st4"/>
		</g>
		<g id="shape134-227" v:mID="134" v:groupContext="shape" v:layerMember="0" transform="translate(340.917,-318.898)">
			<title>动态连接线.134</title>
			<path d="M-0.76 848.98 L-13.41 848.98" class="st4"/>
		</g>
		<g id="shape135-230" v:mID="135" v:groupContext="shape" v:layerMember="1" transform="translate(1054.49,-251.575)">
			<title>输入/输出端口.135</title>
			<desc>toRF</desc>
			<v:userDefs>
				<v:ud v:nameU="Form" v:val="VT0(0):26"/>
				<v:ud v:nameU="visVersion" v:val="VT0(15):26"/>
				<v:ud v:nameU="visDescription" v:val="VT4(单向或双向输入/输出端口。 )"/>
			</v:userDefs>
			<v:textBlock v:margins="rect(1,1,1,1)" v:tabSpace="42.5197"/>
			<v:textRect cx="14.1732" cy="830.201" width="17.01" height="9.20349"/>
			<path d="M0 838.35 L0 834.8 L21.26 834.8 L28.35 838.35 L21.26 841.89 L0 841.89 L0 838.35 Z" class="st5"/>
			<text x="8.17" y="832" class="st9" v:langID="2052"><v:paragraph v:horizAlign="1"/><v:tabList/>toRF</text>		</g>
		<g id="shape136-233" v:mID="136" v:groupContext="shape" v:layerMember="0" transform="translate(997.795,-354.331)">
			<title>动态连接线.136</title>
			<path d="M0 841.89 L10.63 841.89 L10.63 941.1 L56.69 941.1" class="st4"/>
		</g>
		<g id="shape137-236" v:mID="137" v:groupContext="shape" v:layerMember="0" transform="translate(898.583,-240.945)">
			<title>动态连接线.137</title>
			<path d="M0 841.89 L109.84 841.89 L109.84 827.72" class="st4"/>
		</g>
		<g id="shape138-239" v:mID="138" v:groupContext="shape" transform="translate(70.8661,-120.047)">
			<title>工作表.138</title>
			<rect x="0" y="813.543" width="1009.7" height="28.3465" class="st1"/>
		</g>
		<g id="shape139-241" v:mID="139" v:groupContext="shape" v:layerMember="0" transform="translate(606.196,-262.205)">
			<title>动态连接线.139</title>
			<path d="M3.25 841.89 L10.92 841.89 L10.92 955.7" class="st4"/>
		</g>
		<g id="shape142-244" v:mID="142" v:groupContext="shape" transform="translate(559.842,-127.984)">
			<title>工作表.142</title>
			<desc>NEXT_PC</desc>
			<v:textBlock v:margins="rect(4,4,4,4)" v:tabSpace="42.5197"/>
			<v:textRect cx="36.1417" cy="831.472" width="72.29" height="20.8346"/>
			<rect x="0" y="821.055" width="72.2835" height="20.8346" class="st2"/>
			<text x="20.39" y="834.17" class="st8" v:langID="2052"><v:paragraph v:horizAlign="1"/><v:tabList/>NEXT_PC</text>		</g>
		<g id="shape144-247" v:mID="144" v:groupContext="shape" transform="translate(226.772,-252.283)">
			<title>工作表.144</title>
			<desc>pc</desc>
			<v:textBlock v:margins="rect(4,4,4,4)" v:tabSpace="42.5197"/>
			<v:textRect cx="12.0472" cy="834.803" width="24.1" height="14.1732"/>
			<rect x="0" y="827.717" width="24.0945" height="14.1732" class="st2"/>
			<text x="7.55" y="837.5" class="st8" v:langID="2052"><v:paragraph v:horizAlign="1"/><v:tabList/>pc</text>		</g>
		<g id="shape145-250" v:mID="145" v:groupContext="shape" v:layerMember="0" transform="translate(247.217,-255.118)">
			<title>动态连接线.145</title>
			<path d="M3.65 841.89 L10.52 841.89 L10.52 948.61" class="st4"/>
		</g>
		<g id="shape146-253" v:mID="146" v:groupContext="shape" transform="translate(248.031,-134.646)">
			<title>工作表.146</title>
			<desc>D_PC</desc>
			<v:textBlock v:margins="rect(4,4,4,4)" v:tabSpace="42.5197"/>
			<v:textRect cx="21.2598" cy="835.016" width="42.52" height="13.748"/>
			<rect x="0" y="828.142" width="42.5197" height="13.748" class="st2"/>
			<text x="12.26" y="837.72" class="st8" v:langID="2052"><v:paragraph v:horizAlign="1"/><v:tabList/>D_PC</text>		</g>
		<g id="shape148-256" v:mID="148" v:groupContext="shape" transform="translate(417.26,-212.598)">
			<title>工作表.148</title>
			<desc>RST</desc>
			<v:textBlock v:margins="rect(4,4,4,4)" v:tabSpace="42.5197"/>
			<v:textRect cx="12.0472" cy="831.968" width="24.1" height="19.8425"/>
			<rect x="0" y="822.047" width="24.0945" height="19.8425" class="st2"/>
			<text x="5.3" y="834.67" class="st8" v:langID="2052"><v:paragraph v:horizAlign="1"/><v:tabList/>RST</text>		</g>
		<g id="shape150-259" v:mID="150" v:groupContext="shape" v:layerMember="0" transform="translate(418.11,-212.598)">
			<title>动态连接线.150</title>
			<path d="M7.09 841.89 L7.09 906.09" class="st4"/>
		</g>
		<g id="shape152-262" v:mID="152" v:groupContext="shape" transform="translate(396.85,-138.047)">
			<title>工作表.152</title>
			<desc>EXE_Flush</desc>
			<v:textBlock v:margins="rect(4,4,4,4)" v:tabSpace="42.5197"/>
			<v:textRect cx="28.3465" cy="838.205" width="56.7" height="7.37008"/>
			<rect x="0" y="834.52" width="56.6929" height="7.37008" class="st2"/>
			<text x="8.1" y="840.9" class="st8" v:langID="2052"><v:paragraph v:horizAlign="1"/><v:tabList/>EXE_Flush</text>		</g>
		<g id="shape153-265" v:mID="153" v:groupContext="shape" transform="translate(226.772,-223.937)">
			<title>工作表.153</title>
			<desc>RST</desc>
			<v:textBlock v:margins="rect(4,4,4,4)" v:tabSpace="42.5197"/>
			<v:textRect cx="12.0472" cy="831.968" width="24.1" height="19.8425"/>
			<rect x="0" y="822.047" width="24.0945" height="19.8425" class="st2"/>
			<text x="5.3" y="834.67" class="st8" v:langID="2052"><v:paragraph v:horizAlign="1"/><v:tabList/>RST</text>		</g>
		<g id="shape155-268" v:mID="155" v:groupContext="shape" v:layerMember="0" transform="translate(233.858,-223.937)">
			<title>动态连接线.155</title>
			<path d="M7.09 841.89 L7.09 917.43" class="st4"/>
		</g>
		<g id="shape156-271" v:mID="156" v:groupContext="shape" transform="translate(212.598,-134.646)">
			<title>工作表.156</title>
			<desc>D_Flush</desc>
			<v:textBlock v:margins="rect(4,4,4,4)" v:tabSpace="42.5197"/>
			<v:textRect cx="21.2598" cy="836.22" width="42.52" height="11.3386"/>
			<rect x="0" y="830.551" width="42.5197" height="11.3386" class="st2"/>
			<text x="5.51" y="838.92" class="st8" v:langID="2052"><v:paragraph v:horizAlign="1"/><v:tabList/>D_Flush</text>		</g>
		<g id="shape158-274" v:mID="158" v:groupContext="shape" transform="translate(65.9055,-334.488)">
			<title>工作表.158</title>
			<desc>Load</desc>
			<v:textBlock v:margins="rect(4,4,4,4)" v:tabSpace="42.5197"/>
			<v:textRect cx="17.0079" cy="836.22" width="34.02" height="11.3386"/>
			<rect x="0" y="830.551" width="34.0157" height="11.3386" class="st2"/>
			<text x="8.01" y="838.92" class="st8" v:langID="2052"><v:paragraph v:horizAlign="1"/><v:tabList/>Load</text>		</g>
		<g id="shape159-277" v:mID="159" v:groupContext="shape" v:layerMember="0" transform="translate(77.9528,-325.984)">
			<title>动态连接线.159</title>
			<path d="M7.09 841.89 L7.09 1019.48" class="st4"/>
		</g>
		<g id="shape160-280" v:mID="160" v:groupContext="shape" transform="translate(63.7795,-134.646)">
			<title>工作表.160</title>
			<desc>PC_D</desc>
			<v:textBlock v:margins="rect(4,4,4,4)" v:tabSpace="42.5197"/>
			<v:textRect cx="24.8031" cy="836.22" width="49.61" height="11.3386"/>
			<rect x="0" y="830.551" width="49.6063" height="11.3386" class="st2"/>
			<text x="15.8" y="838.92" class="st8" v:langID="2052"><v:paragraph v:horizAlign="1"/><v:tabList/>PC_D</text>		</g>
		<g id="shape161-283" v:mID="161" v:groupContext="shape" transform="translate(527.811,-233.858)">
			<title>工作表.161</title>
			<rect x="0" y="820.63" width="7.93701" height="21.2598" class="st1"/>
		</g>
		<g id="shape162-285" v:mID="162" v:groupContext="shape" v:layerMember="0" transform="translate(460.63,-262.205)">
			<title>动态连接线.162</title>
			<path d="M0 841.89 L0 856.06 L67.18 856.06" class="st4"/>
		</g>
		<g id="shape163-288" v:mID="163" v:groupContext="shape" v:layerMember="0" transform="translate(535.748,-241.937)">
			<title>动态连接线.163</title>
			<path d="M0 839.48 L5.31 839.48 L5.31 830.13 L17.01 830.13" class="st4"/>
		</g>
		<g id="shape165-291" v:mID="165" v:groupContext="shape" v:layerMember="0" transform="translate(527.811,-240.945)">
			<title>动态连接线.165</title>
			<path d="M0 841.89 L-75.83 841.89 L-75.83 737.01" class="st4"/>
		</g>
		<g id="shape166-294" v:mID="166" v:groupContext="shape" transform="translate(517.323,-297.638)">
			<title>工作表.166</title>
			<desc>BRU</desc>
			<v:textBlock v:margins="rect(4,4,4,4)" v:tabSpace="42.5197"/>
			<v:textRect cx="24.8031" cy="822.331" width="49.61" height="39.1181"/>
			<rect x="0" y="802.772" width="49.6063" height="39.1181" class="st1"/>
			<text x="18.05" y="825.03" class="st8" v:langID="2052"><v:paragraph v:horizAlign="1"/><v:tabList/>BRU</text>		</g>
		<g id="shape168-297" v:mID="168" v:groupContext="shape" v:layerMember="0" transform="translate(517.323,-297.638)">
			<title>动态连接线.168</title>
			<path d="M0 834.8 L-16.24 834.8 A2.3622 2.3622 -180 0 0 -20.96 834.8 L-48.66 834.8 A2.3622 2.3622 -180 0 0 -53.39 834.8
						 L-54.33 834.8 A2.3622 2.3622 -180 0 0 -59.06 834.8 L-65.34 834.8" class="st4"/>
		</g>
		<g id="shape170-300" v:mID="170" v:groupContext="shape" v:layerMember="0" transform="translate(517.323,-325.984)">
			<title>动态连接线.170</title>
			<path d="M0 841.89 L-16.24 841.89 A2.3622 2.3622 -180 0 0 -20.96 841.89 L-42.52 841.89 L-42.52 806.46" class="st4"/>
		</g>
		<g id="shape171-303" v:mID="171" v:groupContext="shape" v:layerMember="0" transform="translate(441.354,-297.638)">
			<title>动态连接线.171</title>
			<path d="M0 841.89 L8.27 841.89 A2.3622 2.3622 0 1 1 12.99 841.89 L16.91 841.89 A2.3622 2.3622 0 1 1 21.64 841.89 L22.58
						 841.89 A2.3622 2.3622 0 1 1 27.31 841.89 L57.37 841.89 L57.37 797.46 L90.14 797.46 L90.14 802.77"
					class="st4"/>
		</g>
		<g id="shape172-306" v:mID="172" v:groupContext="shape" transform="translate(614.187,-134.646)">
			<title>工作表.172</title>
			<desc>Bru_taken</desc>
			<v:textBlock v:margins="rect(4,4,4,4)" v:tabSpace="42.5197"/>
			<v:textRect cx="26.6457" cy="836.079" width="53.3" height="11.622"/>
			<rect x="0" y="830.268" width="53.2913" height="11.622" class="st2"/>
			<text x="6.4" y="838.78" class="st8" v:langID="2052"><v:paragraph v:horizAlign="1"/><v:tabList/>Bru_taken</text>		</g>
		<g id="shape173-309" v:mID="173" v:groupContext="shape" v:layerMember="0" transform="translate(566.929,-318.898)">
			<title>动态连接线.173</title>
			<path d="M0 841.89 L56.69 841.89 L56.69 1012.39" class="st4"/>
		</g>
		<g id="shape174-312" v:mID="174" v:groupContext="shape" transform="translate(412.299,-291.968)">
			<title>工作表.174</title>
			<desc>bruop</desc>
			<v:textBlock v:margins="rect(4,4,4,4)" v:tabSpace="42.5197"/>
			<v:textRect cx="17.0079" cy="835.795" width="34.02" height="12.189"/>
			<rect x="0" y="829.701" width="34.0157" height="12.189" class="st2"/>
			<text x="5.76" y="838.5" class="st8" v:langID="2052"><v:paragraph v:horizAlign="1"/><v:tabList/>bruop</text>		</g>
		<g id="shape175-315" v:mID="175" v:groupContext="shape" v:layerMember="1" transform="translate(689.764,-350.787)">
			<title>输入/输出端口.175</title>
			<desc>addr</desc>
			<v:userDefs>
				<v:ud v:nameU="Form" v:val="VT0(0):26"/>
				<v:ud v:nameU="visVersion" v:val="VT0(15):26"/>
				<v:ud v:nameU="visDescription" v:val="VT4(单向或双向输入/输出端口。 )"/>
			</v:userDefs>
			<v:textBlock v:margins="rect(1,1,1,1)" v:tabSpace="42.5197"/>
			<v:textRect cx="14.1732" cy="830.201" width="17.01" height="9.20349"/>
			<path d="M0 838.35 L0 834.8 L21.26 834.8 L28.35 838.35 L21.26 841.89 L0 841.89 L0 838.35 Z" class="st5"/>
			<text x="8.17" y="832" class="st9" v:langID="2052"><v:paragraph v:horizAlign="1"/><v:tabList/>addr</text>		</g>
		<g id="shape176-318" v:mID="176" v:groupContext="shape" v:layerMember="0" transform="translate(692.126,-354.331)">
			<title>动态连接线.176</title>
			<path d="M-2.36 841.89 L-11.81 841.89 L-11.81 822.05" class="st4"/>
		</g>
		<g id="shape178-321" v:mID="178" v:groupContext="shape" transform="translate(626.659,-333.071)">
			<title>工作表.178</title>
			<desc>rs2</desc>
			<v:textBlock v:margins="rect(4,4,4,4)" v:tabSpace="42.5197"/>
			<v:textRect cx="14.1732" cy="834.803" width="28.35" height="14.1732"/>
			<rect x="0" y="827.717" width="28.3465" height="14.1732" class="st2"/>
			<text x="7.42" y="837.5" class="st8" v:langID="2052"><v:paragraph v:horizAlign="1"/><v:tabList/>rs2</text>		</g>
		<g id="shape186-324" v:mID="186" v:groupContext="shape" v:layerMember="1" transform="translate(689.764,-315.354)">
			<title>输入/输出端口.186</title>
			<desc>size</desc>
			<v:userDefs>
				<v:ud v:nameU="Form" v:val="VT0(0):26"/>
				<v:ud v:nameU="visVersion" v:val="VT0(15):26"/>
				<v:ud v:nameU="visDescription" v:val="VT4(单向或双向输入/输出端口。 )"/>
			</v:userDefs>
			<v:textBlock v:margins="rect(1,1,1,1)" v:tabSpace="42.5197"/>
			<v:textRect cx="14.1732" cy="830.201" width="17.01" height="9.20349"/>
			<path d="M0 838.35 L0 834.8 L21.26 834.8 L28.35 838.35 L21.26 841.89 L0 841.89 L0 838.35 Z" class="st5"/>
			<text x="8.17" y="832" class="st9" v:langID="2052"><v:paragraph v:horizAlign="1"/><v:tabList/>size</text>		</g>
		<g id="shape187-327" v:mID="187" v:groupContext="shape" v:layerMember="0" transform="translate(655.006,-311.811)">
			<title>动态连接线.187</title>
			<path d="M0 834.8 L34.76 834.8" class="st4"/>
		</g>
		<g id="shape188-330" v:mID="188" v:groupContext="shape" v:layerMember="1" transform="translate(689.764,-269.291)">
			<title>输入/输出端口.188</title>
			<desc>frommem</desc>
			<v:userDefs>
				<v:ud v:nameU="Form" v:val="VT0(0):26"/>
				<v:ud v:nameU="visVersion" v:val="VT0(15):26"/>
				<v:ud v:nameU="visDescription" v:val="VT4(单向或双向输入/输出端口。 )"/>
			</v:userDefs>
			<v:textBlock v:margins="rect(1,1,1,1)" v:tabSpace="42.5197"/>
			<v:textRect cx="14.1732" cy="830.201" width="26.01" height="9.20349"/>
			<path d="M0 838.35 L0 834.8 L21.26 834.8 L28.35 838.35 L21.26 841.89 L0 841.89 L0 838.35 Z" class="st5"/>
			<text x="3.67" y="832" class="st9" v:langID="2052"><v:paragraph v:horizAlign="1"/><v:tabList/>frommem</text>		</g>
		<g id="shape189-333" v:mID="189" v:groupContext="shape" transform="translate(737.008,-253.417)">
			<title>工作表.189</title>
			<desc>fill</desc>
			<v:textBlock v:margins="rect(4,4,4,4)" v:tabSpace="42.5197"/>
			<v:textRect cx="17.0079" cy="822.472" width="34.02" height="38.8346"/>
			<rect x="0" y="803.055" width="34.0157" height="38.8346" class="st1"/>
			<text x="8.01" y="825.17" class="st8" v:langID="2052"><v:paragraph v:horizAlign="1"/><v:tabList/>fill</text>		</g>
		<g id="shape190-336" v:mID="190" v:groupContext="shape" v:layerMember="0" transform="translate(655.006,-302.031)">
			<title>动态连接线.190</title>
			<path d="M0 846.28 L96.18 846.28 L96.18 851.67" class="st4"/>
		</g>
		<g id="shape191-339" v:mID="191" v:groupContext="shape" v:layerMember="0" transform="translate(718.11,-271.063)">
			<title>动态连接线.191</title>
			<path d="M0 840.12 L10.63 840.12 L10.63 829.49 L18.9 829.49" class="st4"/>
		</g>
		<g id="shape192-342" v:mID="192" v:groupContext="shape" v:layerMember="0" transform="translate(771.024,-269.291)">
			<title>动态连接线.192</title>
			<path d="M0 834.8 L99.21 834.8" class="st4"/>
		</g>
		<g id="shape193-345" v:mID="193" v:groupContext="shape" v:layerMember="0" transform="translate(758.268,-292.252)">
			<title>动态连接线.193</title>
			<path d="M0 841.89 L0 831.26 L-85.04 831.26 L-85.04 815.24" class="st4"/>
		</g>
		<g id="shape194-348" v:mID="194" v:groupContext="shape" v:layerMember="0" transform="translate(898.583,-276.378)">
			<title>动态连接线.194</title>
			<path d="M0 841.89 L36.85 841.89 L36.85 778.11 L56.69 778.11" class="st4"/>
		</g>
		<g id="shape195-351" v:mID="195" v:groupContext="shape" v:layerMember="1" transform="translate(729.921,-329.528)">
			<title>输入/输出端口.195</title>
			<desc>tomem</desc>
			<v:userDefs>
				<v:ud v:nameU="Form" v:val="VT0(0):26"/>
				<v:ud v:nameU="visVersion" v:val="VT0(15):26"/>
				<v:ud v:nameU="visDescription" v:val="VT4(单向或双向输入/输出端口。 )"/>
			</v:userDefs>
			<v:textBlock v:margins="rect(1,1,1,1)" v:tabSpace="42.5197"/>
			<v:textRect cx="14.1732" cy="830.201" width="20.01" height="9.20349"/>
			<path d="M0 838.35 L0 834.8 L21.26 834.8 L28.35 838.35 L21.26 841.89 L0 841.89 L0 838.35 Z" class="st5"/>
			<text x="6.67" y="832" class="st9" v:langID="2052"><v:paragraph v:horizAlign="1"/><v:tabList/>tomem</text>		</g>
		<g id="shape196-354" v:mID="196" v:groupContext="shape" v:layerMember="0" transform="translate(655.006,-325.984)">
			<title>动态连接线.196</title>
			<path d="M0 834.8 L74.92 834.8" class="st4"/>
		</g>
		<g id="shape197-357" v:mID="197" v:groupContext="shape" transform="translate(863.15,-216.85)">
			<title>工作表.197</title>
			<desc>Wb_en</desc>
			<v:textBlock v:margins="rect(4,4,4,4)" v:tabSpace="42.5197"/>
			<v:textRect cx="21.2598" cy="833.386" width="42.52" height="17.0079"/>
			<rect x="0" y="824.882" width="42.5197" height="17.0079" class="st2"/>
			<text x="10.01" y="836.09" class="st8" v:langID="2052"><v:paragraph v:horizAlign="1"/><v:tabList/>Wb_en</text>		</g>
		<g id="shape199-360" v:mID="199" v:groupContext="shape" v:layerMember="0" transform="translate(898.583,-226.772)">
			<title>动态连接线.199</title>
			<path d="M0 841.89 L109.84 841.89 L109.84 827.72" class="st4"/>
		</g>
	</g>
</svg>
